<svg viewBox="0 0 600 400" xmlns="http://www.w3.org/2000/svg">
<g transform="translate(72, 364)">
<g>
<g>
<circle cx="0" cy="-170" fill="#DD3355" r="1.5"/>
<circle cx="0.48" cy="-178.89767143772698" fill="#DD3355" r="1.5"/>
<circle cx="0.96" cy="-187.74864955595567" fill="#DD3355" r="1.5"/>
<circle cx="1.44" cy="-196.53736991485337" fill="#DD3355" r="1.5"/>
<circle cx="1.92" cy="-205.19638660847804" fill="#DD3355" r="1.5"/>
<circle cx="2.4" cy="-213.72051149021883" fill="#DD3355" r="1.5"/>
<circle cx="2.88" cy="-222.04748680074465" fill="#DD3355" r="1.5"/>
<circle cx="3.36" cy="-230.14618366039002" fill="#DD3355" r="1.5"/>
<circle cx="3.84" cy="-238.01141392254402" fill="#DD3355" r="1.5"/>
<circle cx="4.32" cy="-245.5497909482101" fill="#DD3355" r="1.5"/>
<circle cx="4.8" cy="-252.80800805688648" fill="#DD3355" r="1.5"/>
<circle cx="5.28" cy="-259.6563615833003" fill="#DD3355" r="1.5"/>
<circle cx="5.76" cy="-266.183050019837" fill="#DD3355" r="1.5"/>
<circle cx="6.24" cy="-272.242805261391" fill="#DD3355" r="1.5"/>
<circle cx="6.72" cy="-277.90826136051516" fill="#DD3355" r="1.5"/>
<circle cx="7.2" cy="-283.07565538499097" fill="#DD3355" r="1.5"/>
<circle cx="7.68" cy="-287.7864925077059" fill="#DD3355" r="1.5"/>
<circle cx="8.16" cy="-291.973326822718" fill="#DD3355" r="1.5"/>
<circle cx="8.64" cy="-295.6620990630817" fill="#DD3355" r="1.5"/>
<circle cx="9.12" cy="-298.77498702963345" fill="#DD3355" r="1.5"/>
<circle cx="9.6" cy="-301.384624774926" fill="#DD3355" r="1.5"/>
<circle cx="10.08" cy="-303.37687307351905" fill="#DD3355" r="1.5"/>
<circle cx="10.56" cy="-304.84511856440935" fill="#DD3355" r="1.5"/>
<circle cx="11.04" cy="-305.7167271950438" fill="#DD3355" r="1.5"/>
<circle cx="11.52" cy="-305.99688711203345" fill="#DD3355" r="1.5"/>
<circle cx="12" cy="-305.72710348826564" fill="#DD3355" r="1.5"/>
<circle cx="12.48" cy="-304.8295541245766" fill="#DD3355" r="1.5"/>
<circle cx="12.96" cy="-303.3924375133518" fill="#DD3355" r="1.5"/>
<circle cx="13.44" cy="-301.36906033509325" fill="#DD3355" r="1.5"/>
<circle cx="13.92" cy="-298.7905514694662" fill="#DD3355" r="1.5"/>
<circle cx="14.4" cy="-295.64653462324895" fill="#DD3355" r="1.5"/>
<circle cx="14.88" cy="-291.9837031159398" fill="#DD3355" r="1.5"/>
<circle cx="15.36" cy="-287.77611621448403" fill="#DD3355" r="1.5"/>
<circle cx="15.84" cy="-283.0860316782128" fill="#DD3355" r="1.5"/>
<circle cx="16.32" cy="-277.90307321390424" fill="#DD3355" r="1.5"/>
<circle cx="16.8" cy="-272.24799340800195" fill="#DD3355" r="1.5"/>
<circle cx="17.28" cy="-266.1726737266152" fill="#DD3355" r="1.5"/>
<circle cx="17.76" cy="-259.67192602313304" fill="#DD3355" r="1.5"/>
<circle cx="18.24" cy="-252.79763176366464" fill="#DD3355" r="1.5"/>
<circle cx="18.72" cy="-245.55497909482102" fill="#DD3355" r="1.5"/>
<circle cx="19.2" cy="-238.0062257759331" fill="#DD3355" r="1.5"/>
<circle cx="19.68" cy="-230.15137180700094" fill="#DD3355" r="1.5"/>
<circle cx="20.16" cy="-222.04748680074465" fill="#DD3355" r="1.5"/>
<circle cx="20.64" cy="-213.7153233436079" fill="#DD3355" r="1.5"/>
<circle cx="21.12" cy="-205.20676290169988" fill="#DD3355" r="1.5"/>
<circle cx="21.6" cy="-196.52699362163153" fill="#DD3355" r="1.5"/>
<circle cx="22.08" cy="-187.75383770256659" fill="#DD3355" r="1.5"/>
<circle cx="22.56" cy="-178.89767143772698" fill="#DD3355" r="1.5"/>
<circle cx="23.04" cy="-169.98962370677816" fill="#DD3355" r="1.5"/>
<circle cx="23.52" cy="-161.1230811487167" fill="#DD3355" r="1.5"/>
<circle cx="24" cy="-152.23059785760063" fill="#DD3355" r="1.5"/>
<circle cx="24.48" cy="-143.4781945249794" fill="#DD3355" r="1.5"/>
<circle cx="24.96" cy="-134.79323709830012" fill="#DD3355" r="1.5"/>
<circle cx="25.44" cy="-126.27948850978117" fill="#DD3355" r="1.5"/>
<circle cx="25.92" cy="-117.96807763908811" fill="#DD3355" r="1.5"/>
<circle cx="26.4" cy="-109.82787560655538" fill="#DD3355" r="1.5"/>
<circle cx="26.88" cy="-102.01452681051059" fill="#DD3355" r="1.5"/>
<circle cx="27.36" cy="-94.42426831873532" fill="#DD3355" r="1.5"/>
<circle cx="27.84" cy="-87.22312082277902" fill="#DD3355" r="1.5"/>
<circle cx="28.32" cy="-80.3073213904233" fill="#DD3355" r="1.5"/>
<circle cx="28.8" cy="-73.8532670064394" fill="#DD3355" r="1.5"/>
<circle cx="29.28" cy="-67.72087771233252" fill="#DD3355" r="1.5"/>
<circle cx="29.76" cy="-62.128055665761295" fill="#DD3355" r="1.5"/>
<circle cx="30.24" cy="-56.89321573534349" fill="#DD3355" r="1.5"/>
<circle cx="30.72" cy="-52.22907193212684" fill="#DD3355" r="1.5"/>
<circle cx="31.2" cy="-48.021485030671094" fill="#DD3355" r="1.5"/>
<circle cx="31.68" cy="-44.343089083529165" fill="#DD3355" r="1.5"/>
<circle cx="32.16" cy="-41.21982482375561" fill="#DD3355" r="1.5"/>
<circle cx="32.64" cy="-38.63093966490676" fill="#DD3355" r="1.5"/>
<circle cx="33.12" cy="-36.59718619342631" fill="#DD3355" r="1.5"/>
<circle cx="33.6" cy="-35.175634022034366" fill="#DD3355" r="1.5"/>
<circle cx="34.08" cy="-34.27289651173437" fill="#DD3355" r="1.5"/>
<circle cx="34.56" cy="-34.003112887966545" fill="#DD3355" r="1.5"/>
<circle cx="35.04" cy="-34.28846095156713" fill="#DD3355" r="1.5"/>
<circle cx="35.52" cy="-35.15488143559069" fill="#DD3355" r="1.5"/>
<circle cx="36" cy="-36.61275063325907" fill="#DD3355" r="1.5"/>
<circle cx="36.48" cy="-38.62575151829584" fill="#DD3355" r="1.5"/>
<circle cx="36.96" cy="-41.21982482375561" fill="#DD3355" r="1.5"/>
<circle cx="37.44" cy="-44.343089083529165" fill="#DD3355" r="1.5"/>
<circle cx="37.92" cy="-48.021485030671094" fill="#DD3355" r="1.5"/>
<circle cx="38.4" cy="-52.218695638905004" fill="#DD3355" r="1.5"/>
<circle cx="38.88" cy="-56.919156468398086" fill="#DD3355" r="1.5"/>
<circle cx="39.36" cy="-62.09692678609578" fill="#DD3355" r="1.5"/>
<circle cx="39.84" cy="-67.75200659199804" fill="#DD3355" r="1.5"/>
<circle cx="40.32" cy="-73.82213812677388" fill="#DD3355" r="1.5"/>
<circle cx="40.8" cy="-80.3332621234779" fill="#DD3355" r="1.5"/>
<circle cx="41.28" cy="-87.20236823633535" fill="#DD3355" r="1.5"/>
<circle cx="41.76" cy="-94.43983275856807" fill="#DD3355" r="1.5"/>
<circle cx="42.24" cy="-102.00415051728875" fill="#DD3355" r="1.5"/>
<circle cx="42.72" cy="-109.83825189977722" fill="#DD3355" r="1.5"/>
<circle cx="43.2" cy="-117.95770134586627" fill="#DD3355" r="1.5"/>
<circle cx="43.68" cy="-126.27948850978117" fill="#DD3355" r="1.5"/>
<circle cx="44.16" cy="-134.80880153813288" fill="#DD3355" r="1.5"/>
<circle cx="44.64" cy="-143.4522537919248" fill="#DD3355" r="1.5"/>
<circle cx="45.12" cy="-152.26172673726614" fill="#DD3355" r="1.5"/>
<circle cx="45.6" cy="-161.09195226905118" fill="#DD3355" r="1.5"/>
<circle cx="46.08" cy="-170.01037629322184" fill="#DD3355" r="1.5"/>
<circle cx="46.56" cy="-178.88729514450515" fill="#DD3355" r="1.5"/>
<circle cx="47.04" cy="-187.7590258491775" fill="#DD3355" r="1.5"/>
<circle cx="47.52" cy="-196.52699362163153" fill="#DD3355" r="1.5"/>
<circle cx="48" cy="-205.20157475508896" fill="#DD3355" r="1.5"/>
<circle cx="48.48" cy="-213.72051149021883" fill="#DD3355" r="1.5"/>
<circle cx="48.96" cy="-222.0371105075228" fill="#DD3355" r="1.5"/>
<circle cx="49.44" cy="-230.1669362468337" fill="#DD3355" r="1.5"/>
<circle cx="49.92" cy="-237.99584948271126" fill="#DD3355" r="1.5"/>
<circle cx="50.4" cy="-245.55497909482102" fill="#DD3355" r="1.5"/>
<circle cx="50.88" cy="-252.80281991027556" fill="#DD3355" r="1.5"/>
<circle cx="51.36" cy="-259.6667378765221" fill="#DD3355" r="1.5"/>
<circle cx="51.84" cy="-266.1726737266152" fill="#DD3355" r="1.5"/>
<circle cx="52.32" cy="-272.25318155461287" fill="#DD3355" r="1.5"/>
<circle cx="52.8" cy="-277.8978850672933" fill="#DD3355" r="1.5"/>
<circle cx="53.28" cy="-283.0860316782128" fill="#DD3355" r="1.5"/>
<circle cx="53.76" cy="-287.78130436109495" fill="#DD3355" r="1.5"/>
<circle cx="54.24" cy="-291.9785149693289" fill="#DD3355" r="1.5"/>
<circle cx="54.72" cy="-295.6517227698599" fill="#DD3355" r="1.5"/>
<circle cx="55.2" cy="-298.7853633228553" fill="#DD3355" r="1.5"/>
<circle cx="55.68" cy="-301.37424848170417" fill="#DD3355" r="1.5"/>
<circle cx="56.16" cy="-303.3872493667409" fill="#DD3355" r="1.5"/>
<circle cx="56.64" cy="-304.8399304177984" fill="#DD3355" r="1.5"/>
<circle cx="57.12" cy="-305.7167271950438" fill="#DD3355" r="1.5"/>
<circle cx="57.6" cy="-306.00207525864437" fill="#DD3355" r="1.5"/>
<circle cx="58.08" cy="-305.7167271950438" fill="#DD3355" r="1.5"/>
<circle cx="58.56" cy="-304.8347422711875" fill="#DD3355" r="1.5"/>
<circle cx="59.04" cy="-303.3976256599627" fill="#DD3355" r="1.5"/>
<circle cx="59.52" cy="-301.3586840418714" fill="#DD3355" r="1.5"/>
<circle cx="60" cy="-298.80092776268805" fill="#DD3355" r="1.5"/>
<circle cx="60.48" cy="-295.64134647663803" fill="#DD3355" r="1.5"/>
<circle cx="60.96" cy="-291.9837031159398" fill="#DD3355" r="1.5"/>
<circle cx="61.44" cy="-287.78130436109495" fill="#DD3355" r="1.5"/>
<circle cx="61.92" cy="-283.0808435316019" fill="#DD3355" r="1.5"/>
<circle cx="62.4" cy="-277.90307321390424" fill="#DD3355" r="1.5"/>
<circle cx="62.88" cy="-272.24799340800195" fill="#DD3355" r="1.5"/>
<circle cx="63.36" cy="-266.183050019837" fill="#DD3355" r="1.5"/>
<circle cx="63.84" cy="-259.6563615833003" fill="#DD3355" r="1.5"/>
<circle cx="64.32" cy="-252.80800805688648" fill="#DD3355" r="1.5"/>
<circle cx="64.8" cy="-245.5497909482101" fill="#DD3355" r="1.5"/>
<circle cx="65.28" cy="-238.01141392254402" fill="#DD3355" r="1.5"/>
<circle cx="65.76" cy="-230.1409955137791" fill="#DD3355" r="1.5"/>
<circle cx="66.24" cy="-222.0578630939665" fill="#DD3355" r="1.5"/>
<circle cx="66.72" cy="-213.710135196997" fill="#DD3355" r="1.5"/>
<circle cx="67.2" cy="-205.20157475508896" fill="#DD3355" r="1.5"/>
<circle cx="67.68" cy="-196.53736991485337" fill="#DD3355" r="1.5"/>
<circle cx="68.16" cy="-187.74346140934475" fill="#DD3355" r="1.5"/>
<circle cx="68.64" cy="-178.89767143772698" fill="#DD3355" r="1.5"/>
<circle cx="69.12" cy="-170.00518814661092" fill="#DD3355" r="1.5"/>
<circle cx="69.6" cy="-161.10232856227302" fill="#DD3355" r="1.5"/>
<circle cx="70.08" cy="-152.2461622974334" fill="#DD3355" r="1.5"/>
<circle cx="70.56" cy="-143.47300637836847" fill="#DD3355" r="1.5"/>
<circle cx="71.04" cy="-134.7828608050783" fill="#DD3355" r="1.5"/>
<circle cx="71.52" cy="-126.30542924283577" fill="#DD3355" r="1.5"/>
<circle cx="72" cy="-117.93694875942259" fill="#DD3355" r="1.5"/>
<circle cx="72.48" cy="-109.8590044862209" fill="#DD3355" r="1.5"/>
<circle cx="72.96" cy="-101.98858607745599" fill="#DD3355" r="1.5"/>
<circle cx="73.44" cy="-94.43983275856807" fill="#DD3355" r="1.5"/>
<circle cx="73.92" cy="-87.21274452955718" fill="#DD3355" r="1.5"/>
<circle cx="74.4" cy="-80.32288583025606" fill="#DD3355" r="1.5"/>
<circle cx="74.88" cy="-73.8273262733848" fill="#DD3355" r="1.5"/>
<circle cx="75.36" cy="-67.75200659199804" fill="#DD3355" r="1.5"/>
<circle cx="75.84" cy="-62.09692678609578" fill="#DD3355" r="1.5"/>
<circle cx="76.32" cy="-56.919156468398086" fill="#DD3355" r="1.5"/>
<circle cx="76.8" cy="-52.218695638905004" fill="#DD3355" r="1.5"/>
<circle cx="77.28" cy="-48.016296884060175" fill="#DD3355" r="1.5"/>
<circle cx="77.76" cy="-44.348277230140084" fill="#DD3355" r="1.5"/>
<circle cx="78.24" cy="-41.21982482375561" fill="#DD3355" r="1.5"/>
<circle cx="78.72" cy="-38.62575151829584" fill="#DD3355" r="1.5"/>
<circle cx="79.2" cy="-36.61275063325907" fill="#DD3355" r="1.5"/>
<circle cx="79.68" cy="-35.15488143559069" fill="#DD3355" r="1.5"/>
<circle cx="80.16" cy="-34.28846095156713" fill="#DD3355" r="1.5"/>
<circle cx="80.64" cy="-33.997924741355625" fill="#DD3355" r="1.5"/>
<circle cx="81.12" cy="-34.28327280495621" fill="#DD3355" r="1.5"/>
<circle cx="81.6" cy="-35.16525772881253" fill="#DD3355" r="1.5"/>
<circle cx="82.08" cy="-36.60237434003723" fill="#DD3355" r="1.5"/>
<circle cx="82.56" cy="-38.63093966490676" fill="#DD3355" r="1.5"/>
<circle cx="83.04" cy="-41.21982482375561" fill="#DD3355" r="1.5"/>
<circle cx="83.52" cy="-44.337900936918246" fill="#DD3355" r="1.5"/>
<circle cx="84" cy="-48.03704947050385" fill="#DD3355" r="1.5"/>
<circle cx="84.48" cy="-52.203131199072246" fill="#DD3355" r="1.5"/>
<circle cx="84.96" cy="-56.919156468398086" fill="#DD3355" r="1.5"/>
<circle cx="85.44" cy="-62.10730307931762" fill="#DD3355" r="1.5"/>
<circle cx="85.92" cy="-67.73125400555436" fill="#DD3355" r="1.5"/>
<circle cx="86.4" cy="-73.8532670064394" fill="#DD3355" r="1.5"/>
<circle cx="86.88" cy="-80.30213324381238" fill="#DD3355" r="1.5"/>
<circle cx="87.36" cy="-87.22830896938994" fill="#DD3355" r="1.5"/>
<circle cx="87.84" cy="-94.42426831873532" fill="#DD3355" r="1.5"/>
<circle cx="88.32" cy="-102.00415051728875" fill="#DD3355" r="1.5"/>
<circle cx="88.8" cy="-109.84862819299906" fill="#DD3355" r="1.5"/>
<circle cx="89.28" cy="-117.94213690603351" fill="#DD3355" r="1.5"/>
<circle cx="89.76" cy="-126.30024109622485" fill="#DD3355" r="1.5"/>
<circle cx="90.24" cy="-134.7828608050783" fill="#DD3355" r="1.5"/>
<circle cx="90.72" cy="-143.4781945249794" fill="#DD3355" r="1.5"/>
<circle cx="91.2" cy="-152.24097415082247" fill="#DD3355" r="1.5"/>
<circle cx="91.68" cy="-161.10751670888394" fill="#DD3355" r="1.5"/>
<circle cx="92.16" cy="-170" fill="#DD3355" r="1.5"/>
<circle cx="92.64" cy="-178.89248329111606" fill="#DD3355" r="1.5"/>
<circle cx="93.12" cy="-187.75383770256659" fill="#DD3355" r="1.5"/>
<circle cx="93.6" cy="-196.53736991485337" fill="#DD3355" r="1.5"/>
<circle cx="94.08" cy="-205.19119846186712" fill="#DD3355" r="1.5"/>
<circle cx="94.56" cy="-213.73088778344066" fill="#DD3355" r="1.5"/>
<circle cx="95.04" cy="-222.0319223609119" fill="#DD3355" r="1.5"/>
<circle cx="95.52" cy="-230.16174810022278" fill="#DD3355" r="1.5"/>
<circle cx="96" cy="-238.0062257759331" fill="#DD3355" r="1.5"/>
<circle cx="96.48" cy="-245.54460280159918" fill="#DD3355" r="1.5"/>
<circle cx="96.96" cy="-252.8131962034974" fill="#DD3355" r="1.5"/>
<circle cx="97.44" cy="-259.6563615833003" fill="#DD3355" r="1.5"/>
<circle cx="97.92" cy="-266.183050019837" fill="#DD3355" r="1.5"/>
<circle cx="98.4" cy="-272.242805261391" fill="#DD3355" r="1.5"/>
<circle cx="98.88" cy="-277.90826136051516" fill="#DD3355" r="1.5"/>
<circle cx="99.36" cy="-283.07046723838005" fill="#DD3355" r="1.5"/>
<circle cx="99.84" cy="-287.80205694753863" fill="#DD3355" r="1.5"/>
<circle cx="100.32" cy="-291.9577623828852" fill="#DD3355" r="1.5"/>
<circle cx="100.8" cy="-295.67247535630355" fill="#DD3355" r="1.5"/>
<circle cx="101.28" cy="-298.76979888302253" fill="#DD3355" r="1.5"/>
<circle cx="101.76" cy="-301.3794366283151" fill="#DD3355" r="1.5"/>
<circle cx="102.24" cy="-303.38206122012997" fill="#DD3355" r="1.5"/>
<circle cx="102.72" cy="-304.8554948576312" fill="#DD3355" r="1.5"/>
<circle cx="103.2" cy="-305.6959746086001" fill="#DD3355" r="1.5"/>
<circle cx="103.68" cy="-306.02282784508805" fill="#DD3355" r="1.5"/>
<circle cx="104.16" cy="-305.6959746086001" fill="#DD3355" r="1.5"/>
<circle cx="104.64" cy="-304.85030671102027" fill="#DD3355" r="1.5"/>
<circle cx="105.12" cy="-303.3872493667409" fill="#DD3355" r="1.5"/>
<circle cx="105.6" cy="-301.37424848170417" fill="#DD3355" r="1.5"/>
<circle cx="106.08" cy="-298.78017517624437" fill="#DD3355" r="1.5"/>
<circle cx="106.56" cy="-295.6569109164708" fill="#DD3355" r="1.5"/>
<circle cx="107.04" cy="-291.973326822718" fill="#DD3355" r="1.5"/>
<circle cx="107.52" cy="-287.7864925077059" fill="#DD3355" r="1.5"/>
<circle cx="108" cy="-283.0808435316019" fill="#DD3355" r="1.5"/>
<circle cx="108.48" cy="-277.90307321390424" fill="#DD3355" r="1.5"/>
<circle cx="108.96" cy="-272.25318155461287" fill="#DD3355" r="1.5"/>
<circle cx="109.44" cy="-266.16229743339335" fill="#DD3355" r="1.5"/>
<circle cx="109.92" cy="-259.6823023163549" fill="#DD3355" r="1.5"/>
<circle cx="110.4" cy="-252.7872554704428" fill="#DD3355" r="1.5"/>
<circle cx="110.88" cy="-245.56535538804286" fill="#DD3355" r="1.5"/>
<circle cx="111.36" cy="-238.00103762932218" fill="#DD3355" r="1.5"/>
<circle cx="111.84" cy="-230.15137180700094" fill="#DD3355" r="1.5"/>
<circle cx="112.32" cy="-222.04748680074465" fill="#DD3355" r="1.5"/>
<circle cx="112.8" cy="-213.7153233436079" fill="#DD3355" r="1.5"/>
<circle cx="113.28" cy="-205.20676290169988" fill="#DD3355" r="1.5"/>
<circle cx="113.76" cy="-196.52699362163153" fill="#DD3355" r="1.5"/>
<circle cx="114.24" cy="-187.75383770256659" fill="#DD3355" r="1.5"/>
<circle cx="114.72" cy="-178.89248329111606" fill="#DD3355" r="1.5"/>
<circle cx="115.2" cy="-170.00518814661092" fill="#DD3355" r="1.5"/>
<circle cx="115.68" cy="-161.10232856227302" fill="#DD3355" r="1.5"/>
<circle cx="116.16" cy="-152.2513504440443" fill="#DD3355" r="1.5"/>
<circle cx="116.64" cy="-143.4574419385357" fill="#DD3355" r="1.5"/>
<circle cx="117.12" cy="-134.80880153813288" fill="#DD3355" r="1.5"/>
<circle cx="117.6" cy="-126.27948850978117" fill="#DD3355" r="1.5"/>
<circle cx="118.08" cy="-117.95251319925535" fill="#DD3355" r="1.5"/>
<circle cx="118.56" cy="-109.84862819299906" fill="#DD3355" r="1.5"/>
<circle cx="119.04" cy="-101.99377422406691" fill="#DD3355" r="1.5"/>
<circle cx="119.52" cy="-94.44502090517899" fill="#DD3355" r="1.5"/>
<circle cx="120" cy="-87.20236823633535" fill="#DD3355" r="1.5"/>
<circle cx="120.48" cy="-80.32807397686697" fill="#DD3355" r="1.5"/>
<circle cx="120.96" cy="-73.8273262733848" fill="#DD3355" r="1.5"/>
<circle cx="121.44" cy="-67.75719473860896" fill="#DD3355" r="1.5"/>
<circle cx="121.92" cy="-62.08655049287392" fill="#DD3355" r="1.5"/>
<circle cx="122.4" cy="-56.929532761619924" fill="#DD3355" r="1.5"/>
<circle cx="122.88" cy="-52.208319345683165" fill="#DD3355" r="1.5"/>
<circle cx="123.36" cy="-48.026673177282014" fill="#DD3355" r="1.5"/>
<circle cx="123.84" cy="-44.348277230140084" fill="#DD3355" r="1.5"/>
<circle cx="124.32" cy="-41.21463667714469" fill="#DD3355" r="1.5"/>
<circle cx="124.8" cy="-38.63093966490676" fill="#DD3355" r="1.5"/>
<circle cx="125.28" cy="-36.60756248664815" fill="#DD3355" r="1.5"/>
<circle cx="125.76" cy="-35.16006958220161" fill="#DD3355" r="1.5"/>
<circle cx="126.24" cy="-34.28327280495621" fill="#DD3355" r="1.5"/>
<circle cx="126.72" cy="-34.003112887966545" fill="#DD3355" r="1.5"/>
<circle cx="127.2" cy="-34.27808465834529" fill="#DD3355" r="1.5"/>
<circle cx="127.68" cy="-35.17044587542345" fill="#DD3355" r="1.5"/>
<circle cx="128.16" cy="-36.59199804681539" fill="#DD3355" r="1.5"/>
<circle cx="128.64" cy="-38.65169225135044" fill="#DD3355" r="1.5"/>
<circle cx="129.12" cy="-41.19388409070101" fill="#DD3355" r="1.5"/>
<circle cx="129.6" cy="-44.36384166997284" fill="#DD3355" r="1.5"/>
<circle cx="130.08" cy="-48.011108737449256" fill="#DD3355" r="1.5"/>
<circle cx="130.56" cy="-52.218695638905004" fill="#DD3355" r="1.5"/>
<circle cx="131.04" cy="-56.924344615009005" fill="#DD3355" r="1.5"/>
<circle cx="131.52" cy="-62.09173863948486" fill="#DD3355" r="1.5"/>
<circle cx="132" cy="-67.75200659199804" fill="#DD3355" r="1.5"/>
<circle cx="132.48" cy="-73.8273262733848" fill="#DD3355" r="1.5"/>
<circle cx="132.96" cy="-80.32807397686697" fill="#DD3355" r="1.5"/>
<circle cx="133.44" cy="-87.20236823633535" fill="#DD3355" r="1.5"/>
<circle cx="133.92" cy="-94.44502090517899" fill="#DD3355" r="1.5"/>
<circle cx="134.4" cy="-101.99896237067783" fill="#DD3355" r="1.5"/>
<circle cx="134.88" cy="-109.84344004638814" fill="#DD3355" r="1.5"/>
<circle cx="135.36" cy="-117.95251319925535" fill="#DD3355" r="1.5"/>
<circle cx="135.84" cy="-126.2846766563921" fill="#DD3355" r="1.5"/>
<circle cx="136.32" cy="-134.79842524491104" fill="#DD3355" r="1.5"/>
<circle cx="136.8" cy="-143.47300637836847" fill="#DD3355" r="1.5"/>
<circle cx="137.28" cy="-152.2461622974334" fill="#DD3355" r="1.5"/>
<circle cx="137.76" cy="-161.0971404156621" fill="#DD3355" r="1.5"/>
<circle cx="138.24" cy="-170.00518814661092" fill="#DD3355" r="1.5"/>
<circle cx="138.72" cy="-178.89767143772698" fill="#DD3355" r="1.5"/>
<circle cx="139.2" cy="-187.74864955595567" fill="#DD3355" r="1.5"/>
<circle cx="139.68" cy="-196.53736991485337" fill="#DD3355" r="1.5"/>
<circle cx="140.16" cy="-205.19119846186712" fill="#DD3355" r="1.5"/>
<circle cx="140.64" cy="-213.72569963682975" fill="#DD3355" r="1.5"/>
<circle cx="141.12" cy="-222.0371105075228" fill="#DD3355" r="1.5"/>
<circle cx="141.6" cy="-230.16174810022278" fill="#DD3355" r="1.5"/>
<circle cx="142.08" cy="-237.99584948271126" fill="#DD3355" r="1.5"/>
<circle cx="142.56" cy="-245.56535538804286" fill="#DD3355" r="1.5"/>
<circle cx="143.04" cy="-252.7872554704428" fill="#DD3355" r="1.5"/>
<circle cx="143.52" cy="-259.67711416974396" fill="#DD3355" r="1.5"/>
<circle cx="144" cy="-266.16748558000427" fill="#DD3355" r="1.5"/>
<circle cx="144.48" cy="-272.2583697012238" fill="#DD3355" r="1.5"/>
<circle cx="144.96" cy="-277.8926969206824" fill="#DD3355" r="1.5"/>
<circle cx="145.44" cy="-283.0860316782128" fill="#DD3355" r="1.5"/>
<circle cx="145.92" cy="-287.78130436109495" fill="#DD3355" r="1.5"/>
<circle cx="146.4" cy="-291.9837031159398" fill="#DD3355" r="1.5"/>
<circle cx="146.88" cy="-295.64653462324895" fill="#DD3355" r="1.5"/>
<circle cx="147.36" cy="-298.7905514694662" fill="#DD3355" r="1.5"/>
<circle cx="147.84" cy="-301.36387218848233" fill="#DD3355" r="1.5"/>
<circle cx="148.32" cy="-303.3976256599627" fill="#DD3355" r="1.5"/>
<circle cx="148.8" cy="-304.8295541245766" fill="#DD3355" r="1.5"/>
<circle cx="149.28" cy="-305.72710348826564" fill="#DD3355" r="1.5"/>
<circle cx="149.76" cy="-305.99169896542253" fill="#DD3355" r="1.5"/>
<circle cx="150.24" cy="-305.7219153416547" fill="#DD3355" r="1.5"/>
<circle cx="150.72" cy="-304.8347422711875" fill="#DD3355" r="1.5"/>
<circle cx="151.2" cy="-303.3924375133518" fill="#DD3355" r="1.5"/>
<circle cx="151.68" cy="-301.36906033509325" fill="#DD3355" r="1.5"/>
<circle cx="152.16" cy="-298.7905514694662" fill="#DD3355" r="1.5"/>
<circle cx="152.64" cy="-295.64653462324895" fill="#DD3355" r="1.5"/>
<circle cx="153.12" cy="-291.9785149693289" fill="#DD3355" r="1.5"/>
<circle cx="153.6" cy="-287.7864925077059" fill="#DD3355" r="1.5"/>
<circle cx="154.08" cy="-283.07565538499097" fill="#DD3355" r="1.5"/>
<circle cx="154.56" cy="-277.90826136051516" fill="#DD3355" r="1.5"/>
<circle cx="155.04" cy="-272.24799340800195" fill="#DD3355" r="1.5"/>
<circle cx="155.52" cy="-266.16748558000427" fill="#DD3355" r="1.5"/>
<circle cx="156" cy="-259.6874904629658" fill="#DD3355" r="1.5"/>
<circle cx="156.48" cy="-252.77169103061004" fill="#DD3355" r="1.5"/>
<circle cx="156.96" cy="-245.58091982787562" fill="#DD3355" r="1.5"/>
<circle cx="157.44" cy="-237.98547318948943" fill="#DD3355" r="1.5"/>
<circle cx="157.92" cy="-230.16174810022278" fill="#DD3355" r="1.5"/>
<circle cx="158.4" cy="-222.04748680074465" fill="#DD3355" r="1.5"/>
<circle cx="158.88" cy="-213.7153233436079" fill="#DD3355" r="1.5"/>
<circle cx="159.36" cy="-205.20157475508896" fill="#DD3355" r="1.5"/>
<circle cx="159.84" cy="-196.53218176824245" fill="#DD3355" r="1.5"/>
<circle cx="160.32" cy="-187.74864955595567" fill="#DD3355" r="1.5"/>
<circle cx="160.8" cy="-178.89767143772698" fill="#DD3355" r="1.5"/>
<circle cx="161.28" cy="-170.00518814661092" fill="#DD3355" r="1.5"/>
<circle cx="161.76" cy="-161.0971404156621" fill="#DD3355" r="1.5"/>
<circle cx="162.24" cy="-152.25653859065523" fill="#DD3355" r="1.5"/>
<circle cx="162.72" cy="-143.4574419385357" fill="#DD3355" r="1.5"/>
<circle cx="163.2" cy="-134.80880153813288" fill="#DD3355" r="1.5"/>
<circle cx="163.68" cy="-126.27948850978117" fill="#DD3355" r="1.5"/>
<circle cx="164.16" cy="-117.95251319925535" fill="#DD3355" r="1.5"/>
<circle cx="164.64" cy="-109.85381633960998" fill="#DD3355" r="1.5"/>
<circle cx="165.12" cy="-101.98858607745599" fill="#DD3355" r="1.5"/>
<circle cx="165.6" cy="-94.44502090517899" fill="#DD3355" r="1.5"/>
<circle cx="166.08" cy="-87.20755638294627" fill="#DD3355" r="1.5"/>
<circle cx="166.56" cy="-80.32288583025606" fill="#DD3355" r="1.5"/>
<circle cx="167.04" cy="-73.83251441999572" fill="#DD3355" r="1.5"/>
<circle cx="167.52" cy="-67.74681844538712" fill="#DD3355" r="1.5"/>
<circle cx="168" cy="-62.09692678609578" fill="#DD3355" r="1.5"/>
<circle cx="168.48" cy="-56.919156468398086" fill="#DD3355" r="1.5"/>
<circle cx="168.96" cy="-52.218695638905004" fill="#DD3355" r="1.5"/>
<circle cx="169.44" cy="-48.016296884060175" fill="#DD3355" r="1.5"/>
<circle cx="169.92" cy="-44.353465376751004" fill="#DD3355" r="1.5"/>
<circle cx="170.4" cy="-41.20944853053377" fill="#DD3355" r="1.5"/>
<circle cx="170.88" cy="-38.63612781151768" fill="#DD3355" r="1.5"/>
<circle cx="171.36" cy="-36.59718619342631" fill="#DD3355" r="1.5"/>
<circle cx="171.84" cy="-35.175634022034366" fill="#DD3355" r="1.5"/>
<circle cx="172.32" cy="-34.27289651173437" fill="#DD3355" r="1.5"/>
<circle cx="172.8" cy="-34.008301034577464" fill="#DD3355" r="1.5"/>
<circle cx="173.28" cy="-34.27808465834529" fill="#DD3355" r="1.5"/>
<circle cx="173.76" cy="-35.16006958220161" fill="#DD3355" r="1.5"/>
<circle cx="174.24" cy="-36.61275063325907" fill="#DD3355" r="1.5"/>
<circle cx="174.72" cy="-38.62575151829584" fill="#DD3355" r="1.5"/>
<circle cx="175.2" cy="-41.21463667714469" fill="#DD3355" r="1.5"/>
<circle cx="175.68" cy="-44.348277230140084" fill="#DD3355" r="1.5"/>
<circle cx="176.16" cy="-48.021485030671094" fill="#DD3355" r="1.5"/>
<circle cx="176.64" cy="-52.218695638905004" fill="#DD3355" r="1.5"/>
<circle cx="177.12" cy="-56.913968321787166" fill="#DD3355" r="1.5"/>
<circle cx="177.6" cy="-62.1021149327067" fill="#DD3355" r="1.5"/>
<circle cx="178.08" cy="-67.74681844538712" fill="#DD3355" r="1.5"/>
<circle cx="178.56" cy="-73.8273262733848" fill="#DD3355" r="1.5"/>
<circle cx="179.04" cy="-80.32807397686697" fill="#DD3355" r="1.5"/>
<circle cx="179.52" cy="-87.20755638294627" fill="#DD3355" r="1.5"/>
<circle cx="180" cy="-94.43983275856807" fill="#DD3355" r="1.5"/>
<circle cx="180.48" cy="-101.99896237067783" fill="#DD3355" r="1.5"/>
<circle cx="180.96" cy="-109.84862819299906" fill="#DD3355" r="1.5"/>
<circle cx="181.44" cy="-117.94732505264443" fill="#DD3355" r="1.5"/>
<circle cx="181.92" cy="-126.28986480300301" fill="#DD3355" r="1.5"/>
<circle cx="182.4" cy="-134.79323709830012" fill="#DD3355" r="1.5"/>
<circle cx="182.88" cy="-143.47300637836847" fill="#DD3355" r="1.5"/>
<circle cx="183.36" cy="-152.2461622974334" fill="#DD3355" r="1.5"/>
<circle cx="183.84" cy="-161.10751670888394" fill="#DD3355" r="1.5"/>
<circle cx="184.32" cy="-169.98962370677816" fill="#DD3355" r="1.5"/>
<circle cx="184.8" cy="-178.90804773094882" fill="#DD3355" r="1.5"/>
<circle cx="185.28" cy="-187.73827326273383" fill="#DD3355" r="1.5"/>
<circle cx="185.76" cy="-196.5477462080752" fill="#DD3355" r="1.5"/>
<circle cx="186.24" cy="-205.19119846186712" fill="#DD3355" r="1.5"/>
<circle cx="186.72" cy="-213.7153233436079" fill="#DD3355" r="1.5"/>
<circle cx="187.2" cy="-222.0578630939665" fill="#DD3355" r="1.5"/>
<circle cx="187.68" cy="-230.13061922055726" fill="#DD3355" r="1.5"/>
<circle cx="188.16" cy="-238.02697836237678" fill="#DD3355" r="1.5"/>
<circle cx="188.64" cy="-245.53941465498826" fill="#DD3355" r="1.5"/>
<circle cx="189.12" cy="-252.80800805688648" fill="#DD3355" r="1.5"/>
<circle cx="189.6" cy="-259.67192602313304" fill="#DD3355" r="1.5"/>
<circle cx="190.08" cy="-266.15710928678243" fill="#DD3355" r="1.5"/>
<circle cx="190.56" cy="-272.2687459944456" fill="#DD3355" r="1.5"/>
<circle cx="191.04" cy="-277.8875087740715" fill="#DD3355" r="1.5"/>
<circle cx="191.52" cy="-283.0912198248237" fill="#DD3355" r="1.5"/>
<circle cx="192" cy="-287.78130436109495" fill="#DD3355" r="1.5"/>
<circle cx="192.48" cy="-291.9785149693289" fill="#DD3355" r="1.5"/>
<circle cx="192.96" cy="-295.64653462324895" fill="#DD3355" r="1.5"/>
<circle cx="193.44" cy="-298.7957396160771" fill="#DD3355" r="1.5"/>
<circle cx="193.92" cy="-301.3586840418714" fill="#DD3355" r="1.5"/>
<circle cx="194.4" cy="-303.40281380657365" fill="#DD3355" r="1.5"/>
<circle cx="194.88" cy="-304.8347422711875" fill="#DD3355" r="1.5"/>
<circle cx="195.36" cy="-305.7115390484329" fill="#DD3355" r="1.5"/>
<circle cx="195.84" cy="-306.0124515518662" fill="#DD3355" r="1.5"/>
<circle cx="196.32" cy="-305.70116275521104" fill="#DD3355" r="1.5"/>
<circle cx="196.8" cy="-304.8554948576312" fill="#DD3355" r="1.5"/>
<circle cx="197.28" cy="-303.37687307351905" fill="#DD3355" r="1.5"/>
<circle cx="197.76" cy="-301.3794366283151" fill="#DD3355" r="1.5"/>
<circle cx="198.24" cy="-298.7853633228553" fill="#DD3355" r="1.5"/>
<circle cx="198.72" cy="-295.64653462324895" fill="#DD3355" r="1.5"/>
<circle cx="199.2" cy="-291.98889126255074" fill="#DD3355" r="1.5"/>
<circle cx="199.68" cy="-287.7709280678731" fill="#DD3355" r="1.5"/>
<circle cx="200.16" cy="-283.0912198248237" fill="#DD3355" r="1.5"/>
<circle cx="200.64" cy="-277.8978850672933" fill="#DD3355" r="1.5"/>
<circle cx="201.12" cy="-272.25318155461287" fill="#DD3355" r="1.5"/>
<circle cx="201.6" cy="-266.1726737266152" fill="#DD3355" r="1.5"/>
<circle cx="202.08" cy="-259.67192602313304" fill="#DD3355" r="1.5"/>
<circle cx="202.56" cy="-252.79244361705372" fill="#DD3355" r="1.5"/>
<circle cx="203.04" cy="-245.56535538804286" fill="#DD3355" r="1.5"/>
<circle cx="203.52" cy="-237.99584948271126" fill="#DD3355" r="1.5"/>
<circle cx="204" cy="-230.15655995361186" fill="#DD3355" r="1.5"/>
<circle cx="204.48" cy="-222.05267494735557" fill="#DD3355" r="1.5"/>
<circle cx="204.96" cy="-213.69975890377515" fill="#DD3355" r="1.5"/>
<circle cx="205.44" cy="-205.22232734153263" fill="#DD3355" r="1.5"/>
<circle cx="205.92" cy="-196.5166173284097" fill="#DD3355" r="1.5"/>
<circle cx="206.4" cy="-187.7590258491775" fill="#DD3355" r="1.5"/>
<circle cx="206.88" cy="-178.89767143772698" fill="#DD3355" r="1.5"/>
<circle cx="207.36" cy="-169.98962370677816" fill="#DD3355" r="1.5"/>
<circle cx="207.84" cy="-161.11270485549485" fill="#DD3355" r="1.5"/>
<circle cx="208.32" cy="-152.2461622974334" fill="#DD3355" r="1.5"/>
<circle cx="208.8" cy="-143.46781823175755" fill="#DD3355" r="1.5"/>
<circle cx="209.28" cy="-134.79842524491104" fill="#DD3355" r="1.5"/>
<circle cx="209.76" cy="-126.2846766563921" fill="#DD3355" r="1.5"/>
<circle cx="210.24" cy="-117.94732505264443" fill="#DD3355" r="1.5"/>
<circle cx="210.72" cy="-109.85381633960998" fill="#DD3355" r="1.5"/>
<circle cx="211.2" cy="-101.98858607745599" fill="#DD3355" r="1.5"/>
<circle cx="211.68" cy="-94.45020905178991" fill="#DD3355" r="1.5"/>
<circle cx="212.16" cy="-87.20236823633535" fill="#DD3355" r="1.5"/>
<circle cx="212.64" cy="-80.32807397686697" fill="#DD3355" r="1.5"/>
<circle cx="213.12" cy="-73.8273262733848" fill="#DD3355" r="1.5"/>
<circle cx="213.6" cy="-67.74681844538712" fill="#DD3355" r="1.5"/>
<circle cx="214.08" cy="-62.1021149327067" fill="#DD3355" r="1.5"/>
<circle cx="214.56" cy="-56.913968321787166" fill="#DD3355" r="1.5"/>
<circle cx="215.04" cy="-52.22907193212684" fill="#DD3355" r="1.5"/>
<circle cx="215.52" cy="-48.00073244422742" fill="#DD3355" r="1.5"/>
<circle cx="216" cy="-44.37421796319468" fill="#DD3355" r="1.5"/>
<circle cx="216.48" cy="-41.18350779747917" fill="#DD3355" r="1.5"/>
<circle cx="216.96" cy="-38.65688039796136" fill="#DD3355" r="1.5"/>
<circle cx="217.44" cy="-36.58680990020447" fill="#DD3355" r="1.5"/>
<circle cx="217.92" cy="-35.175634022034366" fill="#DD3355" r="1.5"/>
<circle cx="218.4" cy="-34.27808465834529" fill="#DD3355" r="1.5"/>
<circle cx="218.88" cy="-34.003112887966545" fill="#DD3355" r="1.5"/>
<circle cx="219.36" cy="-34.27808465834529" fill="#DD3355" r="1.5"/>
<circle cx="219.84" cy="-35.16525772881253" fill="#DD3355" r="1.5"/>
<circle cx="220.32" cy="-36.60756248664815" fill="#DD3355" r="1.5"/>
<circle cx="220.8" cy="-38.63093966490676" fill="#DD3355" r="1.5"/>
<circle cx="221.28" cy="-41.20944853053377" fill="#DD3355" r="1.5"/>
<circle cx="221.76" cy="-44.353465376751004" fill="#DD3355" r="1.5"/>
<circle cx="222.24" cy="-48.016296884060175" fill="#DD3355" r="1.5"/>
<circle cx="222.72" cy="-52.22388378551592" fill="#DD3355" r="1.5"/>
<circle cx="223.2" cy="-56.90878017517625" fill="#DD3355" r="1.5"/>
<circle cx="223.68" cy="-62.1021149327067" fill="#DD3355" r="1.5"/>
<circle cx="224.16" cy="-67.74681844538712" fill="#DD3355" r="1.5"/>
<circle cx="224.64" cy="-73.83770256660664" fill="#DD3355" r="1.5"/>
<circle cx="225.12" cy="-80.31250953703422" fill="#DD3355" r="1.5"/>
<circle cx="225.6" cy="-87.22312082277902" fill="#DD3355" r="1.5"/>
<circle cx="226.08" cy="-94.4190801721244" fill="#DD3355" r="1.5"/>
<circle cx="226.56" cy="-102.01971495712151" fill="#DD3355" r="1.5"/>
<circle cx="227.04" cy="-109.82787560655538" fill="#DD3355" r="1.5"/>
<circle cx="227.52" cy="-117.97326578569903" fill="#DD3355" r="1.5"/>
<circle cx="228" cy="-126.26392406994842" fill="#DD3355" r="1.5"/>
<circle cx="228.48" cy="-134.8139896847438" fill="#DD3355" r="1.5"/>
<circle cx="228.96" cy="-143.46263008514663" fill="#DD3355" r="1.5"/>
<circle cx="229.44" cy="-152.24097415082247" fill="#DD3355" r="1.5"/>
<circle cx="229.92" cy="-161.11789300210577" fill="#DD3355" r="1.5"/>
<circle cx="230.4" cy="-169.98443556016724" fill="#DD3355" r="1.5"/>
<circle cx="230.88" cy="-178.91323587755974" fill="#DD3355" r="1.5"/>
<circle cx="231.36" cy="-187.7330851161229" fill="#DD3355" r="1.5"/>
<circle cx="231.84" cy="-196.55293435468613" fill="#DD3355" r="1.5"/>
<circle cx="232.32" cy="-205.1860103152562" fill="#DD3355" r="1.5"/>
<circle cx="232.8" cy="-213.72051149021883" fill="#DD3355" r="1.5"/>
<circle cx="233.28" cy="-222.05267494735557" fill="#DD3355" r="1.5"/>
<circle cx="233.76" cy="-230.1409955137791" fill="#DD3355" r="1.5"/>
<circle cx="234.24" cy="-238.01660206915494" fill="#DD3355" r="1.5"/>
<circle cx="234.72" cy="-245.5497909482101" fill="#DD3355" r="1.5"/>
<circle cx="235.2" cy="-252.79244361705372" fill="#DD3355" r="1.5"/>
<circle cx="235.68" cy="-259.6823023163549" fill="#DD3355" r="1.5"/>
<circle cx="236.16" cy="-266.16229743339335" fill="#DD3355" r="1.5"/>
<circle cx="236.64" cy="-272.2583697012238" fill="#DD3355" r="1.5"/>
<circle cx="237.12" cy="-277.8978850672933" fill="#DD3355" r="1.5"/>
<circle cx="237.6" cy="-283.07565538499097" fill="#DD3355" r="1.5"/>
<circle cx="238.08" cy="-287.7968688009277" fill="#DD3355" r="1.5"/>
<circle cx="238.56" cy="-291.96295052949614" fill="#DD3355" r="1.5"/>
<circle cx="239.04" cy="-295.66728720969263" fill="#DD3355" r="1.5"/>
<circle cx="239.52" cy="-298.76979888302253" fill="#DD3355" r="1.5"/>
<circle cx="240" cy="-301.384624774926" fill="#DD3355" r="1.5"/>
<circle cx="240.48" cy="-303.38206122012997" fill="#DD3355" r="1.5"/>
<circle cx="240.96" cy="-304.84511856440935" fill="#DD3355" r="1.5"/>
<circle cx="241.44" cy="-305.70635090182196" fill="#DD3355" r="1.5"/>
<circle cx="241.92" cy="-306.0124515518662" fill="#DD3355" r="1.5"/>
<circle cx="242.4" cy="-305.70635090182196" fill="#DD3355" r="1.5"/>
<circle cx="242.88" cy="-304.85030671102027" fill="#DD3355" r="1.5"/>
<circle cx="243.36" cy="-303.37687307351905" fill="#DD3355" r="1.5"/>
<circle cx="243.84" cy="-301.3794366283151" fill="#DD3355" r="1.5"/>
<circle cx="244.32" cy="-298.78017517624437" fill="#DD3355" r="1.5"/>
<circle cx="244.8" cy="-295.6620990630817" fill="#DD3355" r="1.5"/>
<circle cx="245.28" cy="-291.96813867610706" fill="#DD3355" r="1.5"/>
<circle cx="245.76" cy="-287.7916806543168" fill="#DD3355" r="1.5"/>
<circle cx="246.24" cy="-283.07565538499097" fill="#DD3355" r="1.5"/>
<circle cx="246.72" cy="-277.90826136051516" fill="#DD3355" r="1.5"/>
<circle cx="247.2" cy="-272.242805261391" fill="#DD3355" r="1.5"/>
<circle cx="247.68" cy="-266.1778618732261" fill="#DD3355" r="1.5"/>
<circle cx="248.16" cy="-259.67192602313304" fill="#DD3355" r="1.5"/>
<circle cx="248.64" cy="-252.79244361705372" fill="#DD3355" r="1.5"/>
<circle cx="249.12" cy="-245.56535538804286" fill="#DD3355" r="1.5"/>
<circle cx="249.6" cy="-237.99584948271126" fill="#DD3355" r="1.5"/>
<circle cx="250.08" cy="-230.15137180700094" fill="#DD3355" r="1.5"/>
<circle cx="250.56" cy="-222.0578630939665" fill="#DD3355" r="1.5"/>
<circle cx="251.04" cy="-213.70494705038607" fill="#DD3355" r="1.5"/>
<circle cx="251.52" cy="-205.20676290169988" fill="#DD3355" r="1.5"/>
<circle cx="252" cy="-196.52699362163153" fill="#DD3355" r="1.5"/>
<circle cx="252.48" cy="-187.7590258491775" fill="#DD3355" r="1.5"/>
<circle cx="252.96" cy="-178.89248329111606" fill="#DD3355" r="1.5"/>
<circle cx="253.44" cy="-170" fill="#DD3355" r="1.5"/>
<circle cx="253.92" cy="-161.10751670888394" fill="#DD3355" r="1.5"/>
<circle cx="254.4" cy="-152.23578600421155" fill="#DD3355" r="1.5"/>
<circle cx="254.88" cy="-143.4833826715903" fill="#DD3355" r="1.5"/>
<circle cx="255.36" cy="-134.7880489516892" fill="#DD3355" r="1.5"/>
<circle cx="255.84" cy="-126.28986480300301" fill="#DD3355" r="1.5"/>
<circle cx="256.32" cy="-117.95251319925535" fill="#DD3355" r="1.5"/>
<circle cx="256.8" cy="-109.84344004638814" fill="#DD3355" r="1.5"/>
<circle cx="257.28" cy="-101.99896237067783" fill="#DD3355" r="1.5"/>
<circle cx="257.76" cy="-94.43983275856807" fill="#DD3355" r="1.5"/>
<circle cx="258.24" cy="-87.20755638294627" fill="#DD3355" r="1.5"/>
<circle cx="258.72" cy="-80.32288583025606" fill="#DD3355" r="1.5"/>
<circle cx="259.2" cy="-73.83770256660664" fill="#DD3355" r="1.5"/>
<circle cx="259.68" cy="-67.73644215216528" fill="#DD3355" r="1.5"/>
<circle cx="260.16" cy="-62.10730307931762" fill="#DD3355" r="1.5"/>
<circle cx="260.64" cy="-56.913968321787166" fill="#DD3355" r="1.5"/>
<circle cx="261.12" cy="-52.213507492294084" fill="#DD3355" r="1.5"/>
<circle cx="261.6" cy="-48.03186132389293" fill="#DD3355" r="1.5"/>
<circle cx="262.08" cy="-44.332712790307326" fill="#DD3355" r="1.5"/>
<circle cx="262.56" cy="-41.23020111697745" fill="#DD3355" r="1.5"/>
<circle cx="263.04" cy="-38.615375225074004" fill="#DD3355" r="1.5"/>
<circle cx="263.52" cy="-36.62312692648091" fill="#DD3355" r="1.5"/>
<circle cx="264" cy="-35.14969328897977" fill="#DD3355" r="1.5"/>
<circle cx="264.48" cy="-34.29364909817805" fill="#DD3355" r="1.5"/>
<circle cx="264.96" cy="-33.992736594744706" fill="#DD3355" r="1.5"/>
<circle cx="265.44" cy="-34.28327280495621" fill="#DD3355" r="1.5"/>
<circle cx="265.92" cy="-35.16525772881253" fill="#DD3355" r="1.5"/>
<circle cx="266.4" cy="-36.60756248664815" fill="#DD3355" r="1.5"/>
<circle cx="266.88" cy="-38.63093966490676" fill="#DD3355" r="1.5"/>
<circle cx="267.36" cy="-41.21463667714469" fill="#DD3355" r="1.5"/>
<circle cx="267.84" cy="-44.343089083529165" fill="#DD3355" r="1.5"/>
<circle cx="268.32" cy="-48.03186132389293" fill="#DD3355" r="1.5"/>
<circle cx="268.8" cy="-52.203131199072246" fill="#DD3355" r="1.5"/>
<circle cx="269.28" cy="-56.929532761619924" fill="#DD3355" r="1.5"/>
<circle cx="269.76" cy="-62.09173863948486" fill="#DD3355" r="1.5"/>
<circle cx="270.24" cy="-67.75200659199804" fill="#DD3355" r="1.5"/>
<circle cx="270.72" cy="-73.83251441999572" fill="#DD3355" r="1.5"/>
<circle cx="271.2" cy="-80.31769768364514" fill="#DD3355" r="1.5"/>
<circle cx="271.68" cy="-87.2179326761681" fill="#DD3355" r="1.5"/>
<circle cx="272.16" cy="-94.42426831873532" fill="#DD3355" r="1.5"/>
<circle cx="272.64" cy="-102.01452681051059" fill="#DD3355" r="1.5"/>
<circle cx="273.12" cy="-109.83825189977722" fill="#DD3355" r="1.5"/>
<circle cx="273.6" cy="-117.95251319925535" fill="#DD3355" r="1.5"/>
<circle cx="274.08" cy="-126.28986480300301" fill="#DD3355" r="1.5"/>
<circle cx="274.56" cy="-134.7880489516892" fill="#DD3355" r="1.5"/>
<circle cx="275.04" cy="-143.4781945249794" fill="#DD3355" r="1.5"/>
<circle cx="275.52" cy="-152.24097415082247" fill="#DD3355" r="1.5"/>
<circle cx="276" cy="-161.10751670888394" fill="#DD3355" r="1.5"/>
<circle cx="276.48" cy="-170" fill="#DD3355" r="1.5"/>
<circle cx="276.96" cy="-178.89248329111606" fill="#DD3355" r="1.5"/>
<circle cx="277.44" cy="-187.7590258491775" fill="#DD3355" r="1.5"/>
<circle cx="277.92" cy="-196.52699362163153" fill="#DD3355" r="1.5"/>
<circle cx="278.4" cy="-205.20157475508896" fill="#DD3355" r="1.5"/>
<circle cx="278.88" cy="-213.7153233436079" fill="#DD3355" r="1.5"/>
<circle cx="279.36" cy="-222.04748680074465" fill="#DD3355" r="1.5"/>
<circle cx="279.84" cy="-230.15655995361186" fill="#DD3355" r="1.5"/>
<circle cx="280.32" cy="-238.00103762932218" fill="#DD3355" r="1.5"/>
<circle cx="280.8" cy="-245.55497909482102" fill="#DD3355" r="1.5"/>
<circle cx="281.28" cy="-252.79763176366464" fill="#DD3355" r="1.5"/>
<circle cx="281.76" cy="-259.67192602313304" fill="#DD3355" r="1.5"/>
<circle cx="282.24" cy="-266.1726737266152" fill="#DD3355" r="1.5"/>
<circle cx="282.72" cy="-272.25318155461287" fill="#DD3355" r="1.5"/>
<circle cx="283.2" cy="-277.8926969206824" fill="#DD3355" r="1.5"/>
<circle cx="283.68" cy="-283.09640797143464" fill="#DD3355" r="1.5"/>
<circle cx="284.16" cy="-287.7657399212622" fill="#DD3355" r="1.5"/>
<circle cx="284.64" cy="-291.99407940916166" fill="#DD3355" r="1.5"/>
<circle cx="285.12" cy="-295.64134647663803" fill="#DD3355" r="1.5"/>
<circle cx="285.6" cy="-298.7905514694662" fill="#DD3355" r="1.5"/>
<circle cx="286.08" cy="-301.37424848170417" fill="#DD3355" r="1.5"/>
<circle cx="286.56" cy="-303.37687307351905" fill="#DD3355" r="1.5"/>
<circle cx="287.04" cy="-304.8554948576312" fill="#DD3355" r="1.5"/>
<circle cx="287.52" cy="-305.70116275521104" fill="#DD3355" r="1.5"/>
<circle cx="288" cy="-306.0176396984771" fill="#DD3355" r="1.5"/>
<circle cx="288.48" cy="-305.70116275521104" fill="#DD3355" r="1.5"/>
<circle cx="288.96" cy="-304.84511856440935" fill="#DD3355" r="1.5"/>
<circle cx="289.44" cy="-303.3924375133518" fill="#DD3355" r="1.5"/>
<circle cx="289.92" cy="-301.36906033509325" fill="#DD3355" r="1.5"/>
<circle cx="290.4" cy="-298.7905514694662" fill="#DD3355" r="1.5"/>
<circle cx="290.88" cy="-295.64653462324895" fill="#DD3355" r="1.5"/>
<circle cx="291.36" cy="-291.9785149693289" fill="#DD3355" r="1.5"/>
<circle cx="291.84" cy="-287.7916806543168" fill="#DD3355" r="1.5"/>
<circle cx="292.32" cy="-283.07046723838005" fill="#DD3355" r="1.5"/>
<circle cx="292.8" cy="-277.9134495071261" fill="#DD3355" r="1.5"/>
<circle cx="293.28" cy="-272.2376171147801" fill="#DD3355" r="1.5"/>
<circle cx="293.76" cy="-266.183050019837" fill="#DD3355" r="1.5"/>
<circle cx="294.24" cy="-259.6615497299112" fill="#DD3355" r="1.5"/>
<circle cx="294.72" cy="-252.80800805688648" fill="#DD3355" r="1.5"/>
<circle cx="295.2" cy="-245.5497909482101" fill="#DD3355" r="1.5"/>
<circle cx="295.68" cy="-238.0062257759331" fill="#DD3355" r="1.5"/>
<circle cx="296.16" cy="-230.15655995361186" fill="#DD3355" r="1.5"/>
<circle cx="296.64" cy="-222.0319223609119" fill="#DD3355" r="1.5"/>
<circle cx="297.12" cy="-213.73607593005158" fill="#DD3355" r="1.5"/>
<circle cx="297.6" cy="-205.18082216864528" fill="#DD3355" r="1.5"/>
<circle cx="298.08" cy="-196.55293435468613" fill="#DD3355" r="1.5"/>
<circle cx="298.56" cy="-187.73827326273383" fill="#DD3355" r="1.5"/>
<circle cx="299.04" cy="-178.89767143772698" fill="#DD3355" r="1.5"/>
<circle cx="299.52" cy="-170.00518814661092" fill="#DD3355" r="1.5"/>
<circle cx="300" cy="-161.09195226905118" fill="#DD3355" r="1.5"/>
<circle cx="300.48" cy="-152.26691488387706" fill="#DD3355" r="1.5"/>
<circle cx="300.96" cy="-143.44706564531387" fill="#DD3355" r="1.5"/>
<circle cx="301.44" cy="-134.80880153813288" fill="#DD3355" r="1.5"/>
<circle cx="301.92" cy="-126.2846766563921" fill="#DD3355" r="1.5"/>
<circle cx="302.4" cy="-117.94732505264443" fill="#DD3355" r="1.5"/>
<circle cx="302.88" cy="-109.85381633960998" fill="#DD3355" r="1.5"/>
<circle cx="303.36" cy="-101.99377422406691" fill="#DD3355" r="1.5"/>
<circle cx="303.84" cy="-94.44502090517899" fill="#DD3355" r="1.5"/>
<circle cx="304.32" cy="-87.1919919431135" fill="#DD3355" r="1.5"/>
<circle cx="304.8" cy="-80.34882656331065" fill="#DD3355" r="1.5"/>
<circle cx="305.28" cy="-73.80657368694112" fill="#DD3355" r="1.5"/>
<circle cx="305.76" cy="-67.77275917844172" fill="#DD3355" r="1.5"/>
<circle cx="306.24" cy="-62.07617419965208" fill="#DD3355" r="1.5"/>
<circle cx="306.72" cy="-56.934720908230844" fill="#DD3355" r="1.5"/>
<circle cx="307.2" cy="-52.203131199072246" fill="#DD3355" r="1.5"/>
<circle cx="307.68" cy="-48.03704947050385" fill="#DD3355" r="1.5"/>
<circle cx="308.16" cy="-44.332712790307326" fill="#DD3355" r="1.5"/>
<circle cx="308.64" cy="-41.22501297036653" fill="#DD3355" r="1.5"/>
<circle cx="309.12" cy="-38.62056337168492" fill="#DD3355" r="1.5"/>
<circle cx="309.6" cy="-36.61793877986999" fill="#DD3355" r="1.5"/>
<circle cx="310.08" cy="-35.15488143559069" fill="#DD3355" r="1.5"/>
<circle cx="310.56" cy="-34.28846095156713" fill="#DD3355" r="1.5"/>
<circle cx="311.04" cy="-33.992736594744706" fill="#DD3355" r="1.5"/>
<circle cx="311.52" cy="-34.28846095156713" fill="#DD3355" r="1.5"/>
<circle cx="312" cy="-35.16006958220161" fill="#DD3355" r="1.5"/>
<circle cx="312.48" cy="-36.60756248664815" fill="#DD3355" r="1.5"/>
<circle cx="312.96" cy="-38.63093966490676" fill="#DD3355" r="1.5"/>
<circle cx="313.44" cy="-41.21463667714469" fill="#DD3355" r="1.5"/>
<circle cx="313.92" cy="-44.343089083529165" fill="#DD3355" r="1.5"/>
<circle cx="314.4" cy="-48.03186132389293" fill="#DD3355" r="1.5"/>
<circle cx="314.88" cy="-52.208319345683165" fill="#DD3355" r="1.5"/>
<circle cx="315.36" cy="-56.919156468398086" fill="#DD3355" r="1.5"/>
<circle cx="315.84" cy="-62.1021149327067" fill="#DD3355" r="1.5"/>
<circle cx="316.32" cy="-67.74681844538712" fill="#DD3355" r="1.5"/>
<circle cx="316.8" cy="-73.82213812677388" fill="#DD3355" r="1.5"/>
<circle cx="317.28" cy="-80.34363841669973" fill="#DD3355" r="1.5"/>
<circle cx="317.76" cy="-87.18680379650259" fill="#DD3355" r="1.5"/>
<circle cx="318.24" cy="-94.45539719840083" fill="#DD3355" r="1.5"/>
<circle cx="318.72" cy="-101.99377422406691" fill="#DD3355" r="1.5"/>
<circle cx="319.2" cy="-109.83825189977722" fill="#DD3355" r="1.5"/>
<circle cx="319.68" cy="-117.96807763908811" fill="#DD3355" r="1.5"/>
<circle cx="320.16" cy="-126.26392406994842" fill="#DD3355" r="1.5"/>
<circle cx="320.64" cy="-134.81917783135472" fill="#DD3355" r="1.5"/>
<circle cx="321.12" cy="-143.4522537919248" fill="#DD3355" r="1.5"/>
<circle cx="321.6" cy="-152.25653859065523" fill="#DD3355" r="1.5"/>
<circle cx="322.08" cy="-161.0971404156621" fill="#DD3355" r="1.5"/>
<circle cx="322.56" cy="-170.01037629322184" fill="#DD3355" r="1.5"/>
<circle cx="323.04" cy="-178.88210699789423" fill="#DD3355" r="1.5"/>
<circle cx="323.52" cy="-187.76940214239934" fill="#DD3355" r="1.5"/>
<circle cx="324" cy="-196.51142918179877" fill="#DD3355" r="1.5"/>
<circle cx="324.48" cy="-205.2171391949217" fill="#DD3355" r="1.5"/>
<circle cx="324.96" cy="-213.710135196997" fill="#DD3355" r="1.5"/>
<circle cx="325.44" cy="-222.04229865413373" fill="#DD3355" r="1.5"/>
<circle cx="325.92" cy="-230.1669362468337" fill="#DD3355" r="1.5"/>
<circle cx="326.4" cy="-237.98547318948943" fill="#DD3355" r="1.5"/>
<circle cx="326.88" cy="-245.57054353465378" fill="#DD3355" r="1.5"/>
<circle cx="327.36" cy="-252.7872554704428" fill="#DD3355" r="1.5"/>
<circle cx="327.84" cy="-259.67711416974396" fill="#DD3355" r="1.5"/>
<circle cx="328.32" cy="-266.16748558000427" fill="#DD3355" r="1.5"/>
<circle cx="328.8" cy="-272.2583697012238" fill="#DD3355" r="1.5"/>
<circle cx="329.28" cy="-277.8875087740715" fill="#DD3355" r="1.5"/>
<circle cx="329.76" cy="-283.09640797143464" fill="#DD3355" r="1.5"/>
<circle cx="330.24" cy="-287.77611621448403" fill="#DD3355" r="1.5"/>
<circle cx="330.72" cy="-291.9785149693289" fill="#DD3355" r="1.5"/>
<circle cx="331.2" cy="-295.6620990630817" fill="#DD3355" r="1.5"/>
<circle cx="331.68" cy="-298.76979888302253" fill="#DD3355" r="1.5"/>
<circle cx="332.16" cy="-301.384624774926" fill="#DD3355" r="1.5"/>
<circle cx="332.64" cy="-303.38206122012997" fill="#DD3355" r="1.5"/>
<circle cx="333.12" cy="-304.8399304177984" fill="#DD3355" r="1.5"/>
<circle cx="333.6" cy="-305.7219153416547" fill="#DD3355" r="1.5"/>
<circle cx="334.08" cy="-305.99688711203345" fill="#DD3355" r="1.5"/>
<circle cx="334.56" cy="-305.7167271950438" fill="#DD3355" r="1.5"/>
<circle cx="335.04" cy="-304.8399304177984" fill="#DD3355" r="1.5"/>
<circle cx="335.52" cy="-303.38206122012997" fill="#DD3355" r="1.5"/>
<circle cx="336" cy="-301.384624774926" fill="#DD3355" r="1.5"/>
<circle cx="336.48" cy="-298.77498702963345" fill="#DD3355" r="1.5"/>
<circle cx="336.96" cy="-295.6620990630817" fill="#DD3355" r="1.5"/>
<circle cx="337.44" cy="-291.96813867610706" fill="#DD3355" r="1.5"/>
<circle cx="337.92" cy="-287.7916806543168" fill="#DD3355" r="1.5"/>
<circle cx="338.4" cy="-283.07046723838005" fill="#DD3355" r="1.5"/>
<circle cx="338.88" cy="-277.918637653737" fill="#DD3355" r="1.5"/>
<circle cx="339.36" cy="-272.2324289681692" fill="#DD3355" r="1.5"/>
<circle cx="339.84" cy="-266.183050019837" fill="#DD3355" r="1.5"/>
<circle cx="340.32" cy="-259.67192602313304" fill="#DD3355" r="1.5"/>
<circle cx="340.8" cy="-252.7872554704428" fill="#DD3355" r="1.5"/>
<circle cx="341.28" cy="-245.56535538804286" fill="#DD3355" r="1.5"/>
<circle cx="341.76" cy="-238.0062257759331" fill="#DD3355" r="1.5"/>
<circle cx="342.24" cy="-230.13580736716818" fill="#DD3355" r="1.5"/>
<circle cx="342.72" cy="-222.07342753379925" fill="#DD3355" r="1.5"/>
<circle cx="343.2" cy="-213.69457075716423" fill="#DD3355" r="1.5"/>
<circle cx="343.68" cy="-205.2119510483108" fill="#DD3355" r="1.5"/>
<circle cx="344.16" cy="-196.53218176824245" fill="#DD3355" r="1.5"/>
<circle cx="344.64" cy="-187.74864955595567" fill="#DD3355" r="1.5"/>
<circle cx="345.12" cy="-178.9028595843379" fill="#DD3355" r="1.5"/>
<circle cx="345.6" cy="-169.98962370677816" fill="#DD3355" r="1.5"/>
<circle cx="346.08" cy="-161.11270485549485" fill="#DD3355" r="1.5"/>
<circle cx="346.56" cy="-152.24097415082247" fill="#DD3355" r="1.5"/>
<circle cx="347.04" cy="-143.47300637836847" fill="#DD3355" r="1.5"/>
<circle cx="347.52" cy="-134.80361339152196" fill="#DD3355" r="1.5"/>
<circle cx="348" cy="-126.26911221655934" fill="#DD3355" r="1.5"/>
<circle cx="348.48" cy="-117.96807763908811" fill="#DD3355" r="1.5"/>
<circle cx="348.96" cy="-109.82787560655538" fill="#DD3355" r="1.5"/>
<circle cx="349.44" cy="-102.01971495712151" fill="#DD3355" r="1.5"/>
<circle cx="349.92" cy="-94.42426831873532" fill="#DD3355" r="1.5"/>
<circle cx="350.4" cy="-87.2179326761681" fill="#DD3355" r="1.5"/>
<circle cx="350.88" cy="-80.31769768364514" fill="#DD3355" r="1.5"/>
<circle cx="351.36" cy="-73.83251441999572" fill="#DD3355" r="1.5"/>
<circle cx="351.84" cy="-67.74681844538712" fill="#DD3355" r="1.5"/>
<circle cx="352.32" cy="-62.1021149327067" fill="#DD3355" r="1.5"/>
<circle cx="352.8" cy="-56.919156468398086" fill="#DD3355" r="1.5"/>
<circle cx="353.28" cy="-52.208319345683165" fill="#DD3355" r="1.5"/>
<circle cx="353.76" cy="-48.03186132389293" fill="#DD3355" r="1.5"/>
<circle cx="354.24" cy="-44.343089083529165" fill="#DD3355" r="1.5"/>
<circle cx="354.72" cy="-41.20944853053377" fill="#DD3355" r="1.5"/>
<circle cx="355.2" cy="-38.6413159581286" fill="#DD3355" r="1.5"/>
<circle cx="355.68" cy="-36.59718619342631" fill="#DD3355" r="1.5"/>
<circle cx="356.16" cy="-35.17044587542345" fill="#DD3355" r="1.5"/>
<circle cx="356.64" cy="-34.27808465834529" fill="#DD3355" r="1.5"/>
<circle cx="357.12" cy="-34.003112887966545" fill="#DD3355" r="1.5"/>
<circle cx="357.6" cy="-34.27808465834529" fill="#DD3355" r="1.5"/>
<circle cx="358.08" cy="-35.17044587542345" fill="#DD3355" r="1.5"/>
<circle cx="358.56" cy="-36.60237434003723" fill="#DD3355" r="1.5"/>
<circle cx="359.04" cy="-38.63093966490676" fill="#DD3355" r="1.5"/>
<circle cx="359.52" cy="-41.21982482375561" fill="#DD3355" r="1.5"/>
<circle cx="360" cy="-44.337900936918246" fill="#DD3355" r="1.5"/>
<circle cx="360.48" cy="-48.03186132389293" fill="#DD3355" r="1.5"/>
<circle cx="360.96" cy="-52.208319345683165" fill="#DD3355" r="1.5"/>
<circle cx="361.44" cy="-56.919156468398086" fill="#DD3355" r="1.5"/>
<circle cx="361.92" cy="-62.10730307931762" fill="#DD3355" r="1.5"/>
<circle cx="362.4" cy="-67.73125400555436" fill="#DD3355" r="1.5"/>
<circle cx="362.88" cy="-73.84807885982848" fill="#DD3355" r="1.5"/>
<circle cx="363.36" cy="-80.31250953703422" fill="#DD3355" r="1.5"/>
<circle cx="363.84" cy="-87.21274452955718" fill="#DD3355" r="1.5"/>
<circle cx="364.32" cy="-94.43464461195715" fill="#DD3355" r="1.5"/>
<circle cx="364.8" cy="-102.00415051728875" fill="#DD3355" r="1.5"/>
<circle cx="365.28" cy="-109.83825189977722" fill="#DD3355" r="1.5"/>
<circle cx="365.76" cy="-117.96288949247719" fill="#DD3355" r="1.5"/>
<circle cx="366.24" cy="-126.27948850978117" fill="#DD3355" r="1.5"/>
<circle cx="366.72" cy="-134.79842524491104" fill="#DD3355" r="1.5"/>
<circle cx="367.2" cy="-143.46781823175755" fill="#DD3355" r="1.5"/>
<circle cx="367.68" cy="-152.2461622974334" fill="#DD3355" r="1.5"/>
<circle cx="368.16" cy="-161.10751670888394" fill="#DD3355" r="1.5"/>
<circle cx="368.64" cy="-170" fill="#DD3355" r="1.5"/>
<circle cx="369.12" cy="-178.89767143772698" fill="#DD3355" r="1.5"/>
<circle cx="369.6" cy="-187.74346140934475" fill="#DD3355" r="1.5"/>
<circle cx="370.08" cy="-196.5425580614643" fill="#DD3355" r="1.5"/>
<circle cx="370.56" cy="-205.19638660847804" fill="#DD3355" r="1.5"/>
<circle cx="371.04" cy="-213.7153233436079" fill="#DD3355" r="1.5"/>
<circle cx="371.52" cy="-222.05267494735557" fill="#DD3355" r="1.5"/>
<circle cx="372" cy="-230.1409955137791" fill="#DD3355" r="1.5"/>
<circle cx="372.48" cy="-238.01660206915494" fill="#DD3355" r="1.5"/>
<circle cx="372.96" cy="-245.54460280159918" fill="#DD3355" r="1.5"/>
<circle cx="373.44" cy="-252.80800805688648" fill="#DD3355" r="1.5"/>
<circle cx="373.92" cy="-259.6615497299112" fill="#DD3355" r="1.5"/>
<circle cx="374.4" cy="-266.1778618732261" fill="#DD3355" r="1.5"/>
<circle cx="374.88" cy="-272.24799340800195" fill="#DD3355" r="1.5"/>
<circle cx="375.36" cy="-277.90826136051516" fill="#DD3355" r="1.5"/>
<circle cx="375.84" cy="-283.07046723838005" fill="#DD3355" r="1.5"/>
<circle cx="376.32" cy="-287.7916806543168" fill="#DD3355" r="1.5"/>
<circle cx="376.8" cy="-291.973326822718" fill="#DD3355" r="1.5"/>
<circle cx="377.28" cy="-295.6569109164708" fill="#DD3355" r="1.5"/>
<circle cx="377.76" cy="-298.78017517624437" fill="#DD3355" r="1.5"/>
<circle cx="378.24" cy="-301.384624774926" fill="#DD3355" r="1.5"/>
<circle cx="378.72" cy="-303.37168492690813" fill="#DD3355" r="1.5"/>
<circle cx="379.2" cy="-304.85030671102027" fill="#DD3355" r="1.5"/>
<circle cx="379.68" cy="-305.7167271950438" fill="#DD3355" r="1.5"/>
<circle cx="380.16" cy="-305.99169896542253" fill="#DD3355" r="1.5"/>
<circle cx="380.64" cy="-305.72710348826564" fill="#DD3355" r="1.5"/>
<circle cx="381.12" cy="-304.8347422711875" fill="#DD3355" r="1.5"/>
<circle cx="381.6" cy="-303.3872493667409" fill="#DD3355" r="1.5"/>
<circle cx="382.08" cy="-301.37424848170417" fill="#DD3355" r="1.5"/>
<circle cx="382.56" cy="-298.7853633228553" fill="#DD3355" r="1.5"/>
<circle cx="383.04" cy="-295.6517227698599" fill="#DD3355" r="1.5"/>
<circle cx="383.52" cy="-291.9785149693289" fill="#DD3355" r="1.5"/>
<circle cx="384" cy="-287.77611621448403" fill="#DD3355" r="1.5"/>
<circle cx="384.48" cy="-283.09640797143464" fill="#DD3355" r="1.5"/>
<circle cx="384.96" cy="-277.88232062746056" fill="#DD3355" r="1.5"/>
<circle cx="385.44" cy="-272.2687459944456" fill="#DD3355" r="1.5"/>
<circle cx="385.92" cy="-266.16229743339335" fill="#DD3355" r="1.5"/>
<circle cx="386.4" cy="-259.67192602313304" fill="#DD3355" r="1.5"/>
<circle cx="386.88" cy="-252.79763176366464" fill="#DD3355" r="1.5"/>
<circle cx="387.36" cy="-245.56016724143194" fill="#DD3355" r="1.5"/>
<circle cx="387.84" cy="-238.00103762932218" fill="#DD3355" r="1.5"/>
<circle cx="388.32" cy="-230.15137180700094" fill="#DD3355" r="1.5"/>
<circle cx="388.8" cy="-222.04748680074465" fill="#DD3355" r="1.5"/>
<circle cx="389.28" cy="-213.7153233436079" fill="#DD3355" r="1.5"/>
<circle cx="389.76" cy="-205.20676290169988" fill="#DD3355" r="1.5"/>
<circle cx="390.24" cy="-196.52699362163153" fill="#DD3355" r="1.5"/>
<circle cx="390.72" cy="-187.7590258491775" fill="#DD3355" r="1.5"/>
<circle cx="391.2" cy="-178.88729514450515" fill="#DD3355" r="1.5"/>
<circle cx="391.68" cy="-170.00518814661092" fill="#DD3355" r="1.5"/>
<circle cx="392.16" cy="-161.0971404156621" fill="#DD3355" r="1.5"/>
<circle cx="392.64" cy="-152.26172673726614" fill="#DD3355" r="1.5"/>
<circle cx="393.12" cy="-143.4522537919248" fill="#DD3355" r="1.5"/>
<circle cx="393.6" cy="-134.8139896847438" fill="#DD3355" r="1.5"/>
<circle cx="394.08" cy="-126.26911221655934" fill="#DD3355" r="1.5"/>
<circle cx="394.56" cy="-117.96288949247719" fill="#DD3355" r="1.5"/>
<circle cx="395.04" cy="-109.84344004638814" fill="#DD3355" r="1.5"/>
<circle cx="395.52" cy="-101.99896237067783" fill="#DD3355" r="1.5"/>
<circle cx="396" cy="-94.43983275856807" fill="#DD3355" r="1.5"/>
<circle cx="396.48" cy="-87.20755638294627" fill="#DD3355" r="1.5"/>
<circle cx="396.96" cy="-80.32288583025606" fill="#DD3355" r="1.5"/>
<circle cx="397.44" cy="-73.83251441999572" fill="#DD3355" r="1.5"/>
<circle cx="397.92" cy="-67.7416302987762" fill="#DD3355" r="1.5"/>
<circle cx="398.4" cy="-62.11249122592854" fill="#DD3355" r="1.5"/>
<circle cx="398.88" cy="-56.90359202856533" fill="#DD3355" r="1.5"/>
<circle cx="399.36" cy="-52.22907193212684" fill="#DD3355" r="1.5"/>
<circle cx="399.84" cy="-48.011108737449256" fill="#DD3355" r="1.5"/>
<circle cx="400.32" cy="-44.348277230140084" fill="#DD3355" r="1.5"/>
<circle cx="400.8" cy="-41.22501297036653" fill="#DD3355" r="1.5"/>
<circle cx="401.28" cy="-38.615375225074004" fill="#DD3355" r="1.5"/>
<circle cx="401.76" cy="-36.62312692648091" fill="#DD3355" r="1.5"/>
<circle cx="402.24" cy="-35.14969328897977" fill="#DD3355" r="1.5"/>
<circle cx="402.72" cy="-34.29364909817805" fill="#DD3355" r="1.5"/>
<circle cx="403.2" cy="-33.987548448133786" fill="#DD3355" r="1.5"/>
<circle cx="403.68" cy="-34.29883724478897" fill="#DD3355" r="1.5"/>
<circle cx="404.16" cy="-35.14450514236885" fill="#DD3355" r="1.5"/>
<circle cx="404.64" cy="-36.62312692648091" fill="#DD3355" r="1.5"/>
<circle cx="405.12" cy="-38.615375225074004" fill="#DD3355" r="1.5"/>
<circle cx="405.6" cy="-41.23020111697745" fill="#DD3355" r="1.5"/>
<circle cx="406.08" cy="-44.332712790307326" fill="#DD3355" r="1.5"/>
<circle cx="406.56" cy="-48.03186132389293" fill="#DD3355" r="1.5"/>
<circle cx="407.04" cy="-52.208319345683165" fill="#DD3355" r="1.5"/>
<circle cx="407.52" cy="-56.919156468398086" fill="#DD3355" r="1.5"/>
<circle cx="408" cy="-62.10730307931762" fill="#DD3355" r="1.5"/>
<circle cx="408.48" cy="-67.73644215216528" fill="#DD3355" r="1.5"/>
<circle cx="408.96" cy="-73.84289071321756" fill="#DD3355" r="1.5"/>
<circle cx="409.44" cy="-80.3073213904233" fill="#DD3355" r="1.5"/>
<circle cx="409.92" cy="-87.22830896938994" fill="#DD3355" r="1.5"/>
<circle cx="410.4" cy="-94.4190801721244" fill="#DD3355" r="1.5"/>
<circle cx="410.88" cy="-102.01971495712151" fill="#DD3355" r="1.5"/>
<circle cx="411.36" cy="-109.82268745994446" fill="#DD3355" r="1.5"/>
<circle cx="411.84" cy="-117.97845393230995" fill="#DD3355" r="1.5"/>
<circle cx="412.32" cy="-126.2587359233375" fill="#DD3355" r="1.5"/>
<circle cx="412.8" cy="-134.82436597796564" fill="#DD3355" r="1.5"/>
<circle cx="413.28" cy="-143.44187749870295" fill="#DD3355" r="1.5"/>
<circle cx="413.76" cy="-152.27210303048798" fill="#DD3355" r="1.5"/>
<circle cx="414.24" cy="-161.08157597582934" fill="#DD3355" r="1.5"/>
<circle cx="414.72" cy="-170.02075258644368" fill="#DD3355" r="1.5"/>
<circle cx="415.2" cy="-178.8769188512833" fill="#DD3355" r="1.5"/>
<circle cx="415.68" cy="-187.76421399578842" fill="#DD3355" r="1.5"/>
<circle cx="416.16" cy="-196.53218176824245" fill="#DD3355" r="1.5"/>
<circle cx="416.64" cy="-205.19638660847804" fill="#DD3355" r="1.5"/>
<circle cx="417.12" cy="-213.72051149021883" fill="#DD3355" r="1.5"/>
<circle cx="417.6" cy="-222.04229865413373" fill="#DD3355" r="1.5"/>
<circle cx="418.08" cy="-230.15655995361186" fill="#DD3355" r="1.5"/>
<circle cx="418.56" cy="-238.00103762932218" fill="#DD3355" r="1.5"/>
<circle cx="419.04" cy="-245.56016724143194" fill="#DD3355" r="1.5"/>
<circle cx="419.52" cy="-252.7872554704428" fill="#DD3355" r="1.5"/>
<circle cx="420" cy="-259.6823023163549" fill="#DD3355" r="1.5"/>
<circle cx="420.48" cy="-266.16229743339335" fill="#DD3355" r="1.5"/>
<circle cx="420.96" cy="-272.2635578478347" fill="#DD3355" r="1.5"/>
<circle cx="421.44" cy="-277.8875087740715" fill="#DD3355" r="1.5"/>
<circle cx="421.92" cy="-283.0912198248237" fill="#DD3355" r="1.5"/>
<circle cx="422.4" cy="-287.77611621448403" fill="#DD3355" r="1.5"/>
<circle cx="422.88" cy="-291.9785149693289" fill="#DD3355" r="1.5"/>
<circle cx="423.36" cy="-295.6569109164708" fill="#DD3355" r="1.5"/>
<circle cx="423.84" cy="-298.7853633228553" fill="#DD3355" r="1.5"/>
<circle cx="424.32" cy="-301.36387218848233" fill="#DD3355" r="1.5"/>
<circle cx="424.8" cy="-303.40281380657365" fill="#DD3355" r="1.5"/>
<circle cx="425.28" cy="-304.82436597796567" fill="#DD3355" r="1.5"/>
<circle cx="425.76" cy="-305.72710348826564" fill="#DD3355" r="1.5"/>
<circle cx="426.24" cy="-305.99688711203345" fill="#DD3355" r="1.5"/>
<circle cx="426.72" cy="-305.7115390484329" fill="#DD3355" r="1.5"/>
<circle cx="427.2" cy="-304.84511856440935" fill="#DD3355" r="1.5"/>
<circle cx="427.68" cy="-303.3872493667409" fill="#DD3355" r="1.5"/>
<circle cx="428.16" cy="-301.37424848170417" fill="#DD3355" r="1.5"/>
<circle cx="428.64" cy="-298.78017517624437" fill="#DD3355" r="1.5"/>
<circle cx="429.12" cy="-295.6569109164708" fill="#DD3355" r="1.5"/>
<circle cx="429.6" cy="-291.973326822718" fill="#DD3355" r="1.5"/>
<circle cx="430.08" cy="-287.7864925077059" fill="#DD3355" r="1.5"/>
<circle cx="430.56" cy="-283.0808435316019" fill="#DD3355" r="1.5"/>
<circle cx="431.04" cy="-277.90307321390424" fill="#DD3355" r="1.5"/>
<circle cx="431.52" cy="-272.24799340800195" fill="#DD3355" r="1.5"/>
<circle cx="432" cy="-266.1726737266152" fill="#DD3355" r="1.5"/>
<circle cx="432.48" cy="-259.67192602313304" fill="#DD3355" r="1.5"/>
<circle cx="432.96" cy="-252.79763176366464" fill="#DD3355" r="1.5"/>
<circle cx="433.44" cy="-245.55497909482102" fill="#DD3355" r="1.5"/>
<circle cx="433.92" cy="-238.0062257759331" fill="#DD3355" r="1.5"/>
<circle cx="434.4" cy="-230.14618366039002" fill="#DD3355" r="1.5"/>
<circle cx="434.88" cy="-222.0578630939665" fill="#DD3355" r="1.5"/>
<circle cx="435.36" cy="-213.710135196997" fill="#DD3355" r="1.5"/>
<circle cx="435.84" cy="-205.20157475508896" fill="#DD3355" r="1.5"/>
<circle cx="436.32" cy="-196.53218176824245" fill="#DD3355" r="1.5"/>
<circle cx="436.8" cy="-187.75383770256659" fill="#DD3355" r="1.5"/>
<circle cx="437.28" cy="-178.89248329111606" fill="#DD3355" r="1.5"/>
<circle cx="437.76" cy="-170.00518814661092" fill="#DD3355" r="1.5"/>
<circle cx="438.24" cy="-161.0971404156621" fill="#DD3355" r="1.5"/>
<circle cx="438.72" cy="-152.25653859065523" fill="#DD3355" r="1.5"/>
<circle cx="439.2" cy="-143.4574419385357" fill="#DD3355" r="1.5"/>
<circle cx="439.68" cy="-134.80880153813288" fill="#DD3355" r="1.5"/>
<circle cx="440.16" cy="-126.27430036317025" fill="#DD3355" r="1.5"/>
<circle cx="440.64" cy="-117.95770134586627" fill="#DD3355" r="1.5"/>
<circle cx="441.12" cy="-109.84344004638814" fill="#DD3355" r="1.5"/>
<circle cx="441.6" cy="-102.00415051728875" fill="#DD3355" r="1.5"/>
<circle cx="442.08" cy="-94.43464461195715" fill="#DD3355" r="1.5"/>
<circle cx="442.56" cy="-87.20755638294627" fill="#DD3355" r="1.5"/>
<circle cx="443.04" cy="-80.32807397686697" fill="#DD3355" r="1.5"/>
<circle cx="443.52" cy="-73.82213812677388" fill="#DD3355" r="1.5"/>
<circle cx="444" cy="-67.75719473860896" fill="#DD3355" r="1.5"/>
<circle cx="444.48" cy="-62.09692678609578" fill="#DD3355" r="1.5"/>
<circle cx="444.96" cy="-56.90878017517625" fill="#DD3355" r="1.5"/>
<circle cx="445.44" cy="-52.23426007873776" fill="#DD3355" r="1.5"/>
<circle cx="445.92" cy="-48.00073244422742" fill="#DD3355" r="1.5"/>
<circle cx="446.4" cy="-44.36902981658376" fill="#DD3355" r="1.5"/>
<circle cx="446.88" cy="-41.19388409070101" fill="#DD3355" r="1.5"/>
<circle cx="447.36" cy="-38.64650410473952" fill="#DD3355" r="1.5"/>
<circle cx="447.84" cy="-36.59718619342631" fill="#DD3355" r="1.5"/>
<circle cx="448.32" cy="-35.17044587542345" fill="#DD3355" r="1.5"/>
<circle cx="448.8" cy="-34.27808465834529" fill="#DD3355" r="1.5"/>
<circle cx="449.28" cy="-33.997924741355625" fill="#DD3355" r="1.5"/>
<circle cx="449.76" cy="-34.29364909817805" fill="#DD3355" r="1.5"/>
<circle cx="450.24" cy="-35.14969328897977" fill="#DD3355" r="1.5"/>
<circle cx="450.72" cy="-36.61793877986999" fill="#DD3355" r="1.5"/>
<circle cx="451.2" cy="-38.62056337168492" fill="#DD3355" r="1.5"/>
<circle cx="451.68" cy="-41.21982482375561" fill="#DD3355" r="1.5"/>
<circle cx="452.16" cy="-44.353465376751004" fill="#DD3355" r="1.5"/>
<circle cx="452.64" cy="-48.011108737449256" fill="#DD3355" r="1.5"/>
<circle cx="453.12" cy="-52.22388378551592" fill="#DD3355" r="1.5"/>
<circle cx="453.6" cy="-56.90878017517625" fill="#DD3355" r="1.5"/>
<circle cx="454.08" cy="-62.10730307931762" fill="#DD3355" r="1.5"/>
<circle cx="454.56" cy="-67.74681844538712" fill="#DD3355" r="1.5"/>
<circle cx="455.04" cy="-73.83251441999572" fill="#DD3355" r="1.5"/>
<circle cx="455.52" cy="-80.32288583025606" fill="#DD3355" r="1.5"/>
<circle cx="456" cy="-87.20236823633535" fill="#DD3355" r="1.5"/>
<circle cx="456.48" cy="-94.44502090517899" fill="#DD3355" r="1.5"/>
<circle cx="456.96" cy="-101.99896237067783" fill="#DD3355" r="1.5"/>
<circle cx="457.44" cy="-109.84344004638814" fill="#DD3355" r="1.5"/>
<circle cx="457.92" cy="-117.96288949247719" fill="#DD3355" r="1.5"/>
<circle cx="458.4" cy="-126.26911221655934" fill="#DD3355" r="1.5"/>
<circle cx="458.88" cy="-134.8139896847438" fill="#DD3355" r="1.5"/>
<circle cx="459.36" cy="-143.4574419385357" fill="#DD3355" r="1.5"/>
<circle cx="459.84" cy="-152.2513504440443" fill="#DD3355" r="1.5"/>
<circle cx="460.32" cy="-161.10751670888394" fill="#DD3355" r="1.5"/>
<circle cx="460.8" cy="-169.99481185338908" fill="#DD3355" r="1.5"/>
<circle cx="461.28" cy="-178.89767143772698" fill="#DD3355" r="1.5"/>
<circle cx="461.76" cy="-187.75383770256659" fill="#DD3355" r="1.5"/>
<circle cx="462.24" cy="-196.52699362163153" fill="#DD3355" r="1.5"/>
<circle cx="462.72" cy="-205.2119510483108" fill="#DD3355" r="1.5"/>
<circle cx="463.2" cy="-213.710135196997" fill="#DD3355" r="1.5"/>
<circle cx="463.68" cy="-222.04748680074465" fill="#DD3355" r="1.5"/>
<circle cx="464.16" cy="-230.15655995361186" fill="#DD3355" r="1.5"/>
<circle cx="464.64" cy="-237.99584948271126" fill="#DD3355" r="1.5"/>
<circle cx="465.12" cy="-245.56535538804286" fill="#DD3355" r="1.5"/>
<circle cx="465.6" cy="-252.79244361705372" fill="#DD3355" r="1.5"/>
<circle cx="466.08" cy="-259.67711416974396" fill="#DD3355" r="1.5"/>
<circle cx="466.56" cy="-266.16748558000427" fill="#DD3355" r="1.5"/>
<circle cx="467.04" cy="-272.25318155461287" fill="#DD3355" r="1.5"/>
<circle cx="467.52" cy="-277.8978850672933" fill="#DD3355" r="1.5"/>
<circle cx="468" cy="-283.0860316782128" fill="#DD3355" r="1.5"/>
<circle cx="468.48" cy="-287.78130436109495" fill="#DD3355" r="1.5"/>
<circle cx="468.96" cy="-291.9785149693289" fill="#DD3355" r="1.5"/>
<circle cx="469.44" cy="-295.6517227698599" fill="#DD3355" r="1.5"/>
<circle cx="469.92" cy="-298.78017517624437" fill="#DD3355" r="1.5"/>
<circle cx="470.4" cy="-301.384624774926" fill="#DD3355" r="1.5"/>
<circle cx="470.88" cy="-303.37168492690813" fill="#DD3355" r="1.5"/>
<circle cx="471.36" cy="-304.8606830042421" fill="#DD3355" r="1.5"/>
<circle cx="471.84" cy="-305.6907864619892" fill="#DD3355" r="1.5"/>
<circle cx="472.32" cy="-306.02282784508805" fill="#DD3355" r="1.5"/>
<circle cx="472.8" cy="-305.70635090182196" fill="#DD3355" r="1.5"/>
<circle cx="473.28" cy="-304.8399304177984" fill="#DD3355" r="1.5"/>
<circle cx="473.76" cy="-303.3924375133518" fill="#DD3355" r="1.5"/>
<circle cx="474.24" cy="-301.36906033509325" fill="#DD3355" r="1.5"/>
<circle cx="474.72" cy="-298.7853633228553" fill="#DD3355" r="1.5"/>
<circle cx="475.2" cy="-295.6569109164708" fill="#DD3355" r="1.5"/>
<circle cx="475.68" cy="-291.973326822718" fill="#DD3355" r="1.5"/>
<circle cx="476.16" cy="-287.78130436109495" fill="#DD3355" r="1.5"/>
<circle cx="476.64" cy="-283.0912198248237" fill="#DD3355" r="1.5"/>
<circle cx="477.12" cy="-277.8875087740715" fill="#DD3355" r="1.5"/>
<circle cx="477.6" cy="-272.2687459944456" fill="#DD3355" r="1.5"/>
<circle cx="478.08" cy="-266.15710928678243" fill="#DD3355" r="1.5"/>
<circle cx="478.56" cy="-259.67711416974396" fill="#DD3355" r="1.5"/>
<circle cx="479.04" cy="-252.79244361705372" fill="#DD3355" r="1.5"/>
<circle cx="479.52" cy="-245.56016724143194" fill="#DD3355" r="1.5"/>
</g>
</g>
<g>
<g>
<line stroke="black" stroke-width="1" x1="0" x2="0" y1="0" y2="10"/>
<line stroke="black" stroke-width="1" x1="96" x2="96" y1="0" y2="10"/>
<line stroke="black" stroke-width="1" x1="192" x2="192" y1="0" y2="10"/>
<line stroke="black" stroke-width="1" x1="288" x2="288" y1="0" y2="10"/>
<line stroke="black" stroke-width="1" x1="384" x2="384" y1="0" y2="10"/>
<line stroke="black" stroke-width="1" x1="480" x2="480" y1="0" y2="10"/>
</g>
<line stroke="black" stroke-width="1" x1="0" x2="480" y1="0" y2="0"/>
<g>
<text font-size="12" text-anchor="middle" x="0" y="20">
0
</text>
<text font-size="12" text-anchor="middle" x="96" y="20">
200
</text>
<text font-size="12" text-anchor="middle" x="192" y="20">
400
</text>
<text font-size="12" text-anchor="middle" x="288" y="20">
600
</text>
<text font-size="12" text-anchor="middle" x="384" y="20">
800
</text>
<text font-size="12" text-anchor="middle" x="480" y="20">
1000
</text>
</g>
<text font-size="12" text-anchor="middle" x="240" y="30">
48000 units = 1s
</text>
</g>
<g>
<g>
<line stroke="black" stroke-width="1" x1="0" x2="-10" y1="-0" y2="-0"/>
<line stroke="black" stroke-width="1" x1="0" x2="-10" y1="-85" y2="-85"/>
<line stroke="black" stroke-width="1" x1="0" x2="-10" y1="-170" y2="-170"/>
<line stroke="black" stroke-width="1" x1="0" x2="-10" y1="-255" y2="-255"/>
<line stroke="black" stroke-width="1" x1="0" x2="-10" y1="-340" y2="-340"/>
</g>
<line stroke="black" stroke-width="1" x1="0" x2="0" y1="0" y2="-340"/>
<g>
<text dominant-baseline="middle" font-size="12" text-anchor="end" x="-15" y="-0">
-1
</text>
<text dominant-baseline="middle" font-size="12" text-anchor="end" x="-15" y="-85">
-0.5
</text>
<text dominant-baseline="middle" font-size="12" text-anchor="end" x="-15" y="-170">
0
</text>
<text dominant-baseline="middle" font-size="12" text-anchor="end" x="-15" y="-255">
0.5
</text>
<text dominant-baseline="middle" font-size="12" text-anchor="end" x="-15" y="-340">
1
</text>
</g>
<text font-size="12" text-anchor="middle" transform="rotate(-90 -48 -170)" x="-48" y="-182">
Normalized amplitude
</text>
</g>
</g>
</svg>